<?xml version="1.0" encoding="UTF-8"?>
<svg width="84px" height="30px" viewBox="0 0 84 30" version="1.1" xmlns="http://www.w3.org/2000/svg" xmlns:xlink="http://www.w3.org/1999/xlink">
    <!-- Generator: Sketch 46.2 (44496) - http://www.bohemiancoding.com/sketch -->
    <title>Next</title>
    <desc>Created with Sketch.</desc>
    <defs></defs>
    <g id="Page-1" stroke="none" stroke-width="1" fill="none" fill-rule="evenodd">
        <path d="M24.38,29 L24.38,0.64 L19.58,0.64 L19.58,20.76 L6.7,0.64 L0.58,0.64 L0.58,29 L5.38,29 L5.38,7.52 L19.38,29 L24.38,29 Z M34.02,17.12 L43.58,17.12 C43.5,14.84 41.98,12.8 38.78,12.8 C35.86,12.8 34.18,15.04 34.02,17.12 Z M44.1,22.2 L48.02,23.44 C46.98,26.84 43.9,29.6 39.22,29.6 C33.94,29.6 29.26,25.76 29.26,19.16 C29.26,13 33.82,8.92 38.74,8.92 C44.74,8.92 48.26,12.88 48.26,19.04 C48.26,19.8 48.18,20.44 48.14,20.52 L33.9,20.52 C34.02,23.48 36.34,25.6 39.22,25.6 C42.02,25.6 43.46,24.12 44.1,22.2 Z M50.14,29 L55.46,29 C55.82,28.4 59.46,23.08 59.86,22.48 L64.38,29 L69.82,29 L62.74,19.08 L69.58,9.52 L64.3,9.52 L60.06,15.76 C59.7,15.2 56.14,10.12 55.78,9.52 L50.26,9.52 L57.22,19.16 L50.14,29 Z M79.1,3.56 L74.9,3.56 L74.9,6.48 C74.9,8.2 73.98,9.52 71.9,9.52 L70.9,9.52 L70.9,13.64 L74.5,13.64 L74.5,23.44 C74.5,27.08 76.74,29.24 80.34,29.24 C82.02,29.24 82.9,28.92 83.18,28.8 L83.18,24.96 C82.98,25 82.22,25.12 81.58,25.12 C79.86,25.12 79.1,24.4 79.1,22.68 L79.1,13.64 L83.14,13.64 L83.14,9.52 L79.1,9.52 L79.1,3.56 Z" id="Next" fill="#FFFFFF"></path>
    </g>
</svg>