<?xml version="1.0" encoding="UTF-8"?>
<svg width="79px" height="30px" viewBox="0 0 79 30" version="1.1" xmlns="http://www.w3.org/2000/svg" xmlns:xlink="http://www.w3.org/1999/xlink">
    <!-- Generator: Sketch 46.2 (44496) - http://www.bohemiancoding.com/sketch -->
    <title>Prev</title>
    <desc>Created with Sketch.</desc>
    <defs></defs>
    <g id="Page-1" stroke="none" stroke-width="1" fill="none" fill-rule="evenodd">
        <path d="M5.1,13.68 L10.1,13.68 C13.14,13.68 14.98,12 14.98,9.32 C14.98,6.6 13.14,4.88 10.1,4.88 L5.1,4.88 L5.1,13.68 Z M10.82,17.92 L5.1,17.92 L5.1,29 L0.3,29 L0.3,0.64 L10.82,0.64 C16.26,0.64 19.86,4.32 19.86,9.28 C19.86,14.28 16.26,17.92 10.82,17.92 Z M35.38,9.4 C35.18,9.36 34.7,9.28 34.14,9.28 C31.58,9.28 29.42,10.52 28.5,12.64 L28.5,9.52 L23.98,9.52 L23.98,29 L28.62,29 L28.62,19.72 C28.62,16.08 30.26,14 33.86,14 C34.34,14 34.86,14.04 35.38,14.12 L35.38,9.4 Z M42.42,17.12 L51.98,17.12 C51.9,14.84 50.38,12.8 47.18,12.8 C44.26,12.8 42.58,15.04 42.42,17.12 Z M52.5,22.2 L56.42,23.44 C55.38,26.84 52.3,29.6 47.62,29.6 C42.34,29.6 37.66,25.76 37.66,19.16 C37.66,13 42.22,8.92 47.14,8.92 C53.14,8.92 56.66,12.88 56.66,19.04 C56.66,19.8 56.58,20.44 56.54,20.52 L42.3,20.52 C42.42,23.48 44.74,25.6 47.62,25.6 C50.42,25.6 51.86,24.12 52.5,22.2 Z M78.7,9.52 L73.82,9.52 L68.78,23.44 L63.62,9.52 L58.5,9.52 L66.42,29 L71.06,29 L78.7,9.52 Z" id="Prev" fill="#FFFFFF"></path>
    </g>
</svg>