<?xml version="1.0" encoding="utf-8"?>
<!-- Generator: Adobe Illustrator 21.1.0, SVG Export Plug-In . SVG Version: 6.00 Build 0)  -->
<svg version="1.1" id="Layer_1" xmlns="http://www.w3.org/2000/svg" xmlns:xlink="http://www.w3.org/1999/xlink" x="0px" y="0px"
	 width="935.2px" height="448.4px" viewBox="0 0 935.2 448.4" style="enable-background:new 0 0 935.2 448.4;" xml:space="preserve"
	>
<path d="M925,359c6.3-6,10.2-14.3,10.2-23.7c0-9-4.3-17.1-10.1-23L661,48.2l-79.7,79.7l207.9,207.9H494.7
	c-14.4-0.4-25.8-5.3-35.5-14.6L327.1,189c-13.7-13-32.5-21.2-52.8-21.2c-0.1,0-0.1,0-0.2,0v0H112.7v-55.2h167.1v0
	c33.1,0,62.6,13.6,84.3,35.3l98.6,98.6l79.7-79.7L441.8,66.4C399.8,25,343.1,0,279.5,0c-0.1,0-0.1,0-0.2,0v0H0v280.6h236.4v0
	c15.4,0.1,29.3,6.4,39.3,16.6l129.4,129.4c13.2,12.9,31,21.1,50.7,21.8h357.6c15.1-0.2,28.6-6.4,38.6-16.3L925,359L925,359z"/>
</svg>
